<svg width="403" height="293" viewBox="0 0 403 293" fill="none" xmlns="http://www.w3.org/2000/svg">
<g clip-path="url(#clip0_11_29)">
<path d="M256.812 219.653V290.283H80.3917C60.291 290.283 43.9368 274.441 43.9368 254.968C43.9368 235.496 60.2909 219.653 80.3917 219.653H256.812Z" fill="#F2F2F2"/>
<path d="M261.145 289.74C261.145 290.461 260.859 291.151 260.352 291.661C259.844 292.17 259.155 292.456 258.437 292.457H77.2493C67.4087 292.457 57.9711 288.536 51.0127 281.556C44.0544 274.577 40.1452 265.11 40.1452 255.24C40.1452 245.369 44.0544 235.903 51.0127 228.924C57.9711 221.944 67.4087 218.023 77.2493 218.023H258.437C259.155 218.023 259.844 218.309 260.352 218.819C260.86 219.328 261.145 220.019 261.145 220.74C261.145 221.46 260.86 222.151 260.352 222.661C259.844 223.17 259.155 223.456 258.437 223.456H77.2493C68.8453 223.456 60.7854 226.805 54.8429 232.765C48.9003 238.726 45.5618 246.81 45.5618 255.24C45.5618 263.669 48.9003 271.754 54.8429 277.714C60.7854 283.675 68.8453 287.024 77.2493 287.024H258.437C259.155 287.024 259.844 287.31 260.352 287.82C260.859 288.329 261.145 289.02 261.145 289.74Z" fill="#3E3CFF"/>
<path d="M256.812 235.952H67.2285C67.0848 235.952 66.9471 235.895 66.8455 235.793C66.7439 235.691 66.6868 235.553 66.6868 235.409C66.6868 235.265 66.7439 235.127 66.8455 235.025C66.9471 234.923 67.0848 234.866 67.2285 234.866H256.812C256.955 234.866 257.093 234.923 257.195 235.025C257.296 235.127 257.354 235.265 257.354 235.409C257.354 235.553 257.296 235.691 257.195 235.793C257.093 235.895 256.955 235.952 256.812 235.952Z" fill="#CCCCCC"/>
<path d="M256.812 248.992H67.2285C67.0848 248.992 66.9471 248.935 66.8455 248.833C66.7439 248.731 66.6868 248.593 66.6868 248.449C66.6868 248.304 66.7439 248.166 66.8455 248.064C66.9471 247.962 67.0848 247.905 67.2285 247.905H256.812C256.955 247.905 257.093 247.962 257.195 248.064C257.296 248.166 257.354 248.304 257.354 248.449C257.354 248.593 257.296 248.731 257.195 248.833C257.093 248.935 256.955 248.992 256.812 248.992Z" fill="#CCCCCC"/>
<path d="M256.812 262.031H67.2285C67.0848 262.031 66.9471 261.974 66.8455 261.872C66.7439 261.77 66.6868 261.632 66.6868 261.488C66.6868 261.344 66.7439 261.206 66.8455 261.104C66.9471 261.002 67.0848 260.945 67.2285 260.945H256.812C256.955 260.945 257.093 261.002 257.195 261.104C257.296 261.206 257.354 261.344 257.354 261.488C257.354 261.632 257.296 261.77 257.195 261.872C257.093 261.974 256.955 262.031 256.812 262.031Z" fill="#CCCCCC"/>
<path d="M256.812 275.071H67.2285C67.0848 275.071 66.9471 275.013 66.8455 274.912C66.7439 274.81 66.6868 274.672 66.6868 274.527C66.6868 274.383 66.7439 274.245 66.8455 274.143C66.9471 274.041 67.0848 273.984 67.2285 273.984H256.812C256.955 273.984 257.093 274.041 257.195 274.143C257.296 274.245 257.354 274.383 257.354 274.527C257.354 274.672 257.296 274.81 257.195 274.912C257.093 275.013 256.955 275.071 256.812 275.071Z" fill="#CCCCCC"/>
<path d="M393.159 232.948L348.978 287.947L211.603 176.921C195.951 164.271 193.126 141.643 205.307 126.48C217.487 111.317 240.132 109.273 255.784 121.923L393.159 232.948Z" fill="#F2F2F2"/>
<path d="M352.692 290.251C352.241 290.812 351.587 291.17 350.873 291.247C350.159 291.324 349.443 291.114 348.884 290.662L207.797 176.636C200.134 170.443 195.238 161.45 194.185 151.636C193.133 141.823 196.01 131.991 202.184 124.305C208.359 116.619 217.324 111.708 227.108 110.653C236.892 109.597 246.694 112.483 254.357 118.676L395.444 232.702C395.721 232.926 395.951 233.202 396.122 233.515C396.293 233.828 396.4 234.172 396.438 234.527C396.477 234.882 396.445 235.241 396.344 235.583C396.244 235.925 396.078 236.245 395.855 236.523C395.631 236.8 395.356 237.031 395.043 237.203C394.731 237.374 394.388 237.481 394.035 237.519C393.681 237.557 393.323 237.525 392.982 237.424C392.64 237.324 392.322 237.157 392.045 236.932L250.958 122.907C247.718 120.286 243.995 118.331 240.001 117.154C236.008 115.977 231.822 115.6 227.684 116.046C223.545 116.492 219.535 117.751 215.882 119.752C212.228 121.752 209.004 124.455 206.392 127.706C203.781 130.957 201.834 134.692 200.662 138.698C199.49 142.704 199.116 146.903 199.562 151.054C200.008 155.205 201.265 159.227 203.261 162.89C205.257 166.554 207.953 169.787 211.195 172.405L352.282 286.431C352.841 286.883 353.199 287.54 353.275 288.256C353.352 288.972 353.142 289.69 352.692 290.251Z" fill="#CCCCCC"/>
<path d="M382.963 245.64L235.338 126.331C235.283 126.286 235.237 126.231 235.203 126.168C235.169 126.105 235.147 126.037 235.14 125.966C235.132 125.895 235.138 125.823 235.158 125.755C235.179 125.686 235.212 125.622 235.256 125.567C235.301 125.511 235.356 125.465 235.419 125.431C235.481 125.397 235.55 125.375 235.62 125.367C235.691 125.36 235.763 125.366 235.831 125.386C235.899 125.406 235.963 125.44 236.018 125.485L383.643 244.794C383.698 244.839 383.745 244.894 383.779 244.957C383.813 245.019 383.834 245.088 383.842 245.159C383.85 245.23 383.843 245.302 383.823 245.371C383.803 245.439 383.77 245.503 383.725 245.559C383.681 245.614 383.626 245.66 383.563 245.695C383.501 245.729 383.432 245.75 383.361 245.758C383.29 245.766 383.219 245.759 383.151 245.739C383.082 245.719 383.019 245.685 382.963 245.64Z" fill="#CCCCCC"/>
<path d="M374.807 255.794L227.182 136.484C227.07 136.394 226.999 136.263 226.984 136.119C226.968 135.976 227.01 135.833 227.101 135.721C227.191 135.609 227.321 135.537 227.464 135.521C227.607 135.506 227.75 135.548 227.862 135.638L375.486 254.948C375.542 254.993 375.588 255.048 375.622 255.11C375.656 255.173 375.678 255.242 375.686 255.313C375.693 255.384 375.687 255.456 375.667 255.524C375.647 255.593 375.614 255.657 375.569 255.712C375.524 255.768 375.469 255.814 375.407 255.848C375.344 255.882 375.276 255.904 375.205 255.911C375.134 255.919 375.062 255.913 374.994 255.892C374.926 255.872 374.862 255.839 374.807 255.794Z" fill="#CCCCCC"/>
<path d="M366.65 265.947L219.025 146.638C218.914 146.547 218.842 146.416 218.827 146.273C218.811 146.13 218.853 145.986 218.943 145.874C219.034 145.762 219.165 145.69 219.307 145.675C219.45 145.659 219.593 145.701 219.705 145.792L367.33 265.101C367.385 265.146 367.431 265.201 367.465 265.264C367.5 265.327 367.521 265.395 367.529 265.466C367.536 265.537 367.53 265.609 367.51 265.677C367.49 265.746 367.456 265.81 367.412 265.865C367.367 265.921 367.312 265.967 367.25 266.001C367.187 266.035 367.119 266.057 367.048 266.065C366.977 266.072 366.906 266.066 366.838 266.046C366.769 266.026 366.706 265.992 366.65 265.947Z" fill="#CCCCCC"/>
<path d="M358.494 276.101L210.869 156.791C210.814 156.747 210.767 156.691 210.733 156.629C210.699 156.566 210.678 156.497 210.67 156.426C210.663 156.355 210.669 156.284 210.689 156.215C210.709 156.147 210.742 156.083 210.787 156.027C210.832 155.972 210.887 155.926 210.949 155.892C211.012 155.857 211.08 155.836 211.151 155.828C211.222 155.821 211.293 155.827 211.361 155.847C211.43 155.867 211.493 155.901 211.549 155.945L359.173 275.255C359.229 275.3 359.275 275.355 359.309 275.418C359.343 275.48 359.365 275.549 359.373 275.62C359.38 275.691 359.374 275.763 359.354 275.831C359.334 275.9 359.301 275.964 359.256 276.019C359.211 276.075 359.156 276.121 359.094 276.155C359.031 276.19 358.963 276.211 358.892 276.219C358.821 276.226 358.749 276.22 358.681 276.2C358.613 276.179 358.549 276.146 358.494 276.101Z" fill="#CCCCCC"/>
<path d="M402.458 293H0.541667C0.398008 293 0.260232 292.943 0.15865 292.841C0.0570679 292.739 0 292.601 0 292.457C0 292.313 0.0570679 292.174 0.15865 292.073C0.260232 291.971 0.398008 291.913 0.541667 291.913H402.458C402.602 291.913 402.74 291.971 402.841 292.073C402.943 292.174 403 292.313 403 292.457C403 292.601 402.943 292.739 402.841 292.841C402.74 292.943 402.602 293 402.458 293Z" fill="#CCCCCC"/>
<path d="M183.127 212.229L176.935 212.229L173.99 188.271L183.129 188.272L183.127 212.229Z" fill="#FFB8B8"/>
<path d="M172.511 210.454H184.454V217.996H164.992C164.992 217.006 165.186 216.025 165.564 215.11C165.942 214.195 166.496 213.363 167.194 212.663C167.893 211.963 168.721 211.407 169.634 211.028C170.546 210.649 171.524 210.454 172.511 210.454Z" fill="#2F2E41"/>
<path d="M119.863 212.229L113.671 212.229L110.726 188.271L119.865 188.272L119.863 212.229Z" fill="#FFB8B8"/>
<path d="M109.248 210.454H121.19V217.996H101.728C101.728 217.006 101.923 216.025 102.301 215.11C102.678 214.195 103.232 213.363 103.931 212.663C104.629 211.963 105.458 211.407 106.37 211.028C107.282 210.649 108.26 210.454 109.248 210.454Z" fill="#2F2E41"/>
<path d="M140.547 34.5182V31.8016C140.547 27.1546 142.387 22.6978 145.663 19.4119C148.939 16.1259 153.382 14.2798 158.015 14.2798C162.648 14.2798 167.092 16.1259 170.368 19.4119C173.644 22.6978 175.484 27.1546 175.484 31.8016V34.5182C175.484 37.8684 174.157 41.0814 171.796 43.4504C169.434 45.8193 166.231 47.1502 162.89 47.1502H153.14C151.487 47.1502 149.849 46.8235 148.321 46.1887C146.793 45.5538 145.405 44.6234 144.235 43.4504C143.066 42.2774 142.138 40.8849 141.505 39.3523C140.872 37.8197 140.547 36.1771 140.547 34.5182Z" fill="#2F2E41"/>
<path d="M158.015 48.0849C165.363 48.0849 171.319 42.1105 171.319 34.7407C171.319 27.3708 165.363 21.3964 158.015 21.3964C150.668 21.3964 144.712 27.3708 144.712 34.7407C144.712 42.1105 150.668 48.0849 158.015 48.0849Z" fill="#FFB8B8"/>
<path d="M85.6508 80.6032C86.1907 80.0919 86.8358 79.7055 87.5407 79.4713C88.2456 79.237 88.9931 79.1607 89.7305 79.2476C90.468 79.3345 91.1775 79.5825 91.8091 79.9742C92.4407 80.3658 92.9789 80.8917 93.386 81.5146L104.791 79.3507L107.792 85.9816L91.6436 88.8105C90.555 89.427 89.2787 89.6216 88.0566 89.3573C86.8346 89.0931 85.7515 88.3884 85.0129 87.3767C84.2742 86.3651 83.9311 85.1168 84.0487 83.8684C84.1663 82.62 84.7363 81.4582 85.6508 80.6032Z" fill="#FFB8B8"/>
<path d="M147.793 56.7154L129.091 69.0727L97.5345 79.18C97.1162 79.3148 96.7574 79.5909 96.5192 79.9612C96.281 80.3315 96.1781 80.7732 96.228 81.2111L96.9164 87.1585C96.947 87.4217 97.032 87.6756 97.1661 87.904C97.3002 88.1323 97.4804 88.33 97.6951 88.4844C97.9098 88.6388 98.1543 88.7465 98.413 88.8006C98.6716 88.8547 98.9387 88.854 99.197 88.7985L128.896 82.4131C130.334 82.1058 131.693 81.5056 132.889 80.6498L153.899 65.6561C154.661 65.1095 155.269 64.3746 155.664 63.5228C156.058 62.6709 156.226 61.7312 156.152 60.7948C156.075 59.8572 155.756 58.9558 155.226 58.1793C154.696 57.4029 153.974 56.7782 153.131 56.3666C152.287 55.955 151.352 55.7707 150.416 55.8318C149.48 55.893 148.576 56.1975 147.793 56.7154Z" fill="#CCCCCC"/>
<path d="M177.045 205.431C176.57 205.431 176.105 205.292 175.707 205.031C175.309 204.771 174.995 204.4 174.804 203.963L146.416 133.604C146.349 133.451 146.238 133.323 146.097 133.235C145.955 133.148 145.791 133.106 145.625 133.116C145.459 133.125 145.3 133.185 145.17 133.288C145.039 133.39 144.943 133.531 144.894 133.69L121.733 202.187C121.636 202.506 121.474 202.801 121.258 203.055C121.042 203.309 120.777 203.515 120.479 203.662C120.18 203.81 119.855 203.894 119.523 203.91C119.191 203.927 118.859 203.875 118.548 203.758L110.781 200.836C110.359 200.679 109.99 200.408 109.713 200.053C109.436 199.697 109.262 199.272 109.212 198.824C105.718 168.294 136.187 91.2318 136.495 90.4572L136.58 90.2426L164.355 96.4052L164.413 96.4684C175.495 108.594 184.603 185.073 186.316 200.281C186.38 200.83 186.256 201.385 185.963 201.854C185.671 202.322 185.228 202.677 184.707 202.86L177.852 205.292C177.593 205.384 177.32 205.431 177.045 205.431Z" fill="#2F2E41"/>
<path d="M153.114 98.8857C146.385 98.8857 138.882 97.5399 136.573 91.9852L136.52 91.8576L136.592 91.7393C138.414 88.7394 140.824 83.622 139.529 82.6614C136.978 80.7696 135.74 77.6575 135.85 73.4113C136.089 64.1936 142.35 56.0097 151.431 53.0467C153.966 52.2331 156.546 51.5669 159.157 51.0515C161.061 50.6662 163.026 50.7086 164.912 51.1756C166.797 51.6426 168.556 52.5227 170.063 53.7527C171.588 54.9907 172.82 56.5521 173.672 58.3248C174.524 60.0975 174.974 62.0374 174.989 64.0053C175.085 73.856 173.573 87.5759 165.829 96.9952C165.466 97.4323 164.961 97.7269 164.403 97.8272C160.677 98.5031 156.9 98.8572 153.114 98.8857Z" fill="#CCCCCC"/>
<path d="M150.611 98.5168C150.977 97.1991 151.847 96.0797 153.032 95.4017C154.216 94.7237 155.62 94.542 156.937 94.8961C157.206 94.9715 157.468 95.0689 157.721 95.1875L166.381 87.2829L172.403 91.3525L160.019 102.344C159.46 103.355 158.58 104.15 157.518 104.602C156.457 105.053 155.276 105.136 154.162 104.836C153.513 104.658 152.906 104.353 152.376 103.938C151.846 103.523 151.403 103.007 151.073 102.419C150.742 101.832 150.532 101.184 150.452 100.514C150.373 99.8446 150.427 99.1656 150.611 98.5168Z" fill="#FFB8B8"/>
<path d="M165.009 98.6172C164.447 98.6176 163.902 98.4227 163.468 98.0657L160.053 95.2666C159.768 95.0333 159.54 94.7384 159.385 94.404C159.23 94.0696 159.152 93.7044 159.158 93.3357C159.164 92.967 159.252 92.6044 159.418 92.2749C159.583 91.9455 159.82 91.6579 160.112 91.4335L174.434 80.4152C174.604 80.284 174.715 80.0909 174.744 79.8778C174.773 79.6648 174.717 79.4489 174.588 79.2771L165.748 67.5546C164.721 66.1972 164.205 64.519 164.293 62.8172C164.381 61.1155 165.067 59.4998 166.228 58.2562C167.452 56.931 169.127 56.1155 170.922 55.9715C172.717 55.8275 174.5 56.3656 175.918 57.4789L175.974 57.5381L185.205 70.7961C186.203 71.5812 187.007 72.587 187.553 73.7351C188.1 74.8833 188.374 76.1426 188.355 77.4148C188.336 78.6869 188.025 79.9375 187.444 81.0688C186.864 82.2001 186.031 83.1815 185.01 83.9364L166.46 98.1378C166.04 98.4492 165.531 98.6172 165.009 98.6172Z" fill="#CCCCCC"/>
<path d="M146.231 30.9867V24.3658L158.015 19.2044L169.252 24.3658V30.9867C169.252 31.2749 169.138 31.5513 168.935 31.755C168.732 31.9588 168.456 32.0733 168.169 32.0733H147.315C147.027 32.0733 146.752 31.9588 146.548 31.755C146.345 31.5513 146.231 31.2749 146.231 30.9867Z" fill="#2F2E41"/>
<path d="M157.474 15.1582C155.742 9.59549 159.381 3.22037 164.76 1.01851C170.14 -1.18335 176.576 0.35582 181.115 3.99362C185.655 7.63143 188.471 13.0802 189.963 18.7126C191.455 24.3449 191.739 30.2182 192.014 36.0395C198.624 37.2573 203.12 45.1205 200.83 51.4577C198.541 57.7949 190.066 60.9433 184.213 57.631C178.36 54.3187 176.665 45.4149 180.889 40.1724C182.888 37.6918 184.004 34.6132 184.062 31.4243C184.119 28.2354 183.114 25.1184 181.206 22.567C179.298 20.0156 176.596 18.1757 173.528 17.3386C170.459 16.5015 167.2 16.7152 164.267 17.9457C161.009 19.3121 156.922 15.7619 157.474 15.1582Z" fill="#2F2E41"/>
<path d="M83.2077 54.9194C75.2943 54.8673 67.4798 53.1506 60.2691 49.8802C59.8399 49.6884 59.4756 49.3754 59.2205 48.9795C58.9655 48.5836 58.8307 48.1218 58.8327 47.6505V27.8642C58.8334 27.216 59.0905 26.5946 59.5474 26.1362C60.0044 25.6779 60.6239 25.42 61.2702 25.4193H105.145C105.791 25.4201 106.411 25.6779 106.868 26.1362C107.325 26.5946 107.582 27.216 107.583 27.8642V47.6505C107.585 48.1219 107.45 48.5836 107.195 48.9795C106.94 49.3754 106.576 49.6884 106.146 49.8803C98.9356 53.1506 91.1211 54.8673 83.2077 54.9194Z" fill="#3E3CFF"/>
<path d="M83.2017 38.8901C82.8764 38.8904 82.5544 38.8255 82.2545 38.6991L47.4622 23.9756C47.0135 23.7858 46.6318 23.4655 46.3663 23.056C46.1008 22.6465 45.9637 22.1667 45.9726 21.6783C45.9815 21.19 46.1361 20.7155 46.4164 20.3161C46.6967 19.9166 47.0898 19.6106 47.5451 19.4373L82.3379 6.19807C82.8982 5.98385 83.5178 5.98517 84.0773 6.20178L118.404 19.441C118.857 19.6156 119.247 19.9218 119.525 20.3203C119.804 20.7187 119.957 21.1914 119.966 21.6779C119.975 22.1643 119.839 22.6424 119.576 23.0509C119.312 23.4594 118.933 23.7798 118.487 23.9711L84.1604 38.6943C83.8572 38.8238 83.5311 38.8904 83.2017 38.8901Z" fill="#3E3CFF"/>
<path d="M62.8952 51.2266C64.6901 51.2266 66.1452 49.7671 66.1452 47.9667C66.1452 46.1663 64.6901 44.7068 62.8952 44.7068C61.1002 44.7068 59.6452 46.1663 59.6452 47.9667C59.6452 49.7671 61.1002 51.2266 62.8952 51.2266Z" fill="#3F3D56"/>
<path opacity="0.2" d="M118.606 21.8812L84.2788 36.6045C84.0112 36.7192 83.7233 36.7788 83.4322 36.7795C83.1412 36.7802 82.853 36.7221 82.5848 36.6086L47.7925 21.8855C47.3556 21.705 46.991 21.3836 46.7565 20.9721C46.6031 21.239 46.508 21.5355 46.4776 21.842C46.4472 22.1485 46.4822 22.458 46.5801 22.7499C46.6781 23.0418 46.8369 23.3095 47.0459 23.5352C47.2549 23.7608 47.5094 23.9393 47.7925 24.0587L82.5848 38.7818C82.853 38.8953 83.1412 38.9534 83.4322 38.9527C83.7233 38.952 84.0112 38.8925 84.2788 38.7777L118.606 24.0544C118.888 23.9339 119.14 23.7549 119.348 23.5291C119.556 23.3034 119.713 23.036 119.81 22.7447C119.907 22.4535 119.941 22.1448 119.911 21.8393C119.88 21.5337 119.785 21.2382 119.632 20.9721C119.399 21.3803 119.038 21.6999 118.606 21.8812Z" fill="black"/>
<path d="M63.1683 47.954C63.3119 47.954 63.4497 47.8967 63.5513 47.7948C63.6529 47.6929 63.7099 47.5547 63.7099 47.4107V29.2307L81.5747 22.7027C81.7184 22.7049 81.857 22.6497 81.9601 22.5493C82.0632 22.449 82.1223 22.3116 82.1245 22.1675C82.1266 22.0234 82.0716 21.8844 81.9715 21.781C81.8715 21.6776 81.7345 21.6183 81.5909 21.6161L63.7261 28.1441C63.5823 28.1408 63.4394 28.1667 63.3059 28.2205C63.1725 28.2742 63.0513 28.3545 62.9497 28.4566C62.847 28.5574 62.7655 28.6779 62.71 28.8108C62.6545 28.9438 62.6262 29.0866 62.6266 29.2307V47.4107C62.6266 47.5547 62.6837 47.6929 62.7853 47.7948C62.8868 47.8967 63.0246 47.954 63.1683 47.954Z" fill="#3F3D56"/>
</g>
<defs>
<clipPath id="clip0_11_29">
<rect width="403" height="293" fill="white"/>
</clipPath>
</defs>
</svg>
