<svg width="288" height="60" viewBox="0 0 288 60" fill="none" xmlns="http://www.w3.org/2000/svg">
<path d="M27.8808 41.9851V25.9211H32.1368V40.3531L29.6408 38.2731H36.1368V41.9851H27.8808ZM21.1288 32.8331V29.0891H27.8808V32.8331H21.1288ZM11.9128 49.9211C10.0568 49.9211 8.39275 49.5798 6.92075 48.8971C5.47008 48.2358 4.32875 47.3078 3.49675 46.1131C2.66475 44.9184 2.24875 43.5638 2.24875 42.0491C2.24875 41.6224 2.28075 41.0571 2.34475 40.3531C2.40875 39.6491 2.49408 38.8598 2.60075 37.9851C2.72875 37.1104 2.85675 36.2251 2.98475 35.3291C3.13408 34.4118 3.27275 33.5264 3.40075 32.6731L7.62475 33.2491C7.39008 34.6784 7.18742 35.9904 7.01675 37.1851C6.86742 38.3584 6.75008 39.3611 6.66475 40.1931C6.57942 41.0251 6.53675 41.6331 6.53675 42.0171C6.53675 42.8704 6.75008 43.6064 7.17675 44.2251C7.60342 44.8438 8.21142 45.3238 9.00075 45.6651C9.81142 46.0278 10.7821 46.2091 11.9128 46.2091C13.0861 46.2091 14.0354 46.0384 14.7608 45.6971C15.4861 45.3558 16.0088 44.8864 16.3288 44.2891C16.6701 43.6918 16.8408 43.0198 16.8408 42.2731V25.9211H21.1288V42.2731C21.1288 43.8091 20.7234 45.1531 19.9128 46.3051C19.1234 47.4571 18.0354 48.3424 16.6488 48.9611C15.2621 49.6011 13.6834 49.9211 11.9128 49.9211ZM9.57675 24.7691V21.1211H13.8648V24.7691H9.57675ZM36.1368 41.9851V38.2731C36.2434 38.2731 36.3394 38.3158 36.4248 38.4011C36.5101 38.4864 36.5741 38.6144 36.6168 38.7851C36.6594 38.9558 36.6914 39.1584 36.7128 39.3931C36.7554 39.6064 36.7768 39.8518 36.7768 40.1291C36.7768 40.4064 36.7554 40.6624 36.7128 40.8971C36.6914 41.1318 36.6594 41.3344 36.6168 41.5051C36.5741 41.6544 36.5101 41.7718 36.4248 41.8571C36.3394 41.9424 36.2434 41.9851 36.1368 41.9851ZM25.0648 48.8011V45.1531H29.1928V48.8011H25.0648ZM30.8888 48.8011V45.1531H35.0168V48.8011H30.8888ZM36.125 41.9851V38.2731H42.909C43.8263 38.2731 44.7117 38.1024 45.565 37.7611C46.4183 37.3984 47.197 36.9291 47.901 36.3531C48.6263 35.7558 49.2557 35.1051 49.789 34.4011C50.3437 33.6758 50.7703 32.9398 51.069 32.1931C51.389 31.4464 51.549 30.7424 51.549 30.0811V28.0331L53.597 31.4251C52.4877 30.8278 51.357 30.3798 50.205 30.0811C49.053 29.7824 47.9543 29.6331 46.909 29.6331C45.885 29.6331 44.7863 29.7824 43.613 30.0811C42.461 30.3798 41.341 30.8278 40.253 31.4251L42.301 28.0331V30.0811C42.301 30.7424 42.4503 31.4464 42.749 32.1931C43.069 32.9398 43.4957 33.6758 44.029 34.4011C44.5623 35.1051 45.1917 35.7558 45.917 36.3531C46.6423 36.9291 47.4317 37.3984 48.285 37.7611C49.1383 38.1024 50.013 38.2731 50.909 38.2731H57.501V41.9851H52.253C50.589 41.9851 49.0317 41.7184 47.581 41.1851C46.1303 40.6518 44.8183 39.9478 43.645 39.0731C42.4717 38.1771 41.4583 37.2064 40.605 36.1611C39.773 35.0944 39.133 34.0384 38.685 32.9931C38.237 31.9264 38.013 30.9558 38.013 30.0811V28.2571C38.9303 27.7451 39.901 27.3184 40.925 26.9771C41.9703 26.6358 43.005 26.3798 44.029 26.2091C45.0743 26.0171 46.0343 25.9211 46.909 25.9211C47.805 25.9211 48.765 26.0171 49.789 26.2091C50.813 26.3798 51.837 26.6358 52.861 26.9771C53.9063 27.3184 54.8877 27.7451 55.805 28.2571V30.0811C55.805 30.9558 55.581 31.9264 55.133 32.9931C54.685 34.0384 54.0343 35.0944 53.181 36.1611C52.349 37.2064 51.3463 38.1771 50.173 39.0731C48.9997 39.9478 47.6877 40.6518 46.237 41.1851C44.7863 41.7184 43.229 41.9851 41.565 41.9851H36.125ZM36.125 41.9851C35.997 41.9851 35.901 41.9424 35.837 41.8571C35.7517 41.7718 35.6877 41.6544 35.645 41.5051C35.581 41.3344 35.5383 41.1318 35.517 40.8971C35.4957 40.6624 35.485 40.4064 35.485 40.1291C35.485 39.7451 35.5063 39.4251 35.549 39.1691C35.5917 38.8918 35.6663 38.6784 35.773 38.5291C35.8583 38.3584 35.9757 38.2731 36.125 38.2731V41.9851ZM57.501 41.9851V38.2731C57.629 38.2731 57.7357 38.3158 57.821 38.4011C57.9063 38.4864 57.9703 38.6144 58.013 38.7851C58.0557 38.9558 58.0877 39.1584 58.109 39.3931C58.1303 39.6064 58.141 39.8518 58.141 40.1291C58.141 40.4064 58.1303 40.6624 58.109 40.8971C58.0877 41.1318 58.0557 41.3344 58.013 41.5051C57.9703 41.6544 57.9063 41.7718 57.821 41.8571C57.7357 41.9424 57.629 41.9851 57.501 41.9851ZM76.412 41.9851V38.2731H79.804V41.9851H76.412ZM57.5 41.9851C57.372 41.9851 57.276 41.9424 57.212 41.8571C57.1267 41.7718 57.0627 41.6544 57.02 41.5051C56.956 41.3344 56.9133 41.1318 56.892 40.8971C56.8707 40.6624 56.86 40.4064 56.86 40.1291C56.86 39.7451 56.8813 39.4251 56.924 39.1691C56.9667 38.8918 57.0413 38.6784 57.148 38.5291C57.2333 38.3584 57.3507 38.2731 57.5 38.2731V41.9851ZM57.5 41.9851V38.2731H74.108L72.156 39.9371V34.0491C72.156 32.8971 72.028 32.0011 71.772 31.3611C71.516 30.6998 71.068 30.2411 70.428 29.9851C69.8093 29.7078 68.9453 29.5691 67.836 29.5691C66.9613 29.5691 66.0973 29.6331 65.244 29.7611C64.412 29.8678 63.7613 30.0171 63.292 30.2091L65.948 27.7131C65.82 28.2038 65.692 28.8224 65.564 29.5691C65.4573 30.3158 65.3613 31.1158 65.276 31.9691C65.1907 32.8011 65.148 33.6224 65.148 34.4331C65.148 35.1798 65.18 35.9584 65.244 36.7691C65.3293 37.5798 65.4147 38.2944 65.5 38.9131C65.6067 39.5318 65.692 39.9584 65.756 40.1931L61.692 41.3131C61.6067 41.0144 61.5 40.5238 61.372 39.8411C61.244 39.1584 61.1267 38.3478 61.02 37.4091C60.9347 36.4704 60.892 35.4784 60.892 34.4331C60.892 33.3664 60.9453 32.3424 61.052 31.3611C61.1587 30.3584 61.276 29.4624 61.404 28.6731C61.5533 27.8624 61.692 27.2118 61.82 26.7211C62.332 26.5291 63.132 26.3371 64.22 26.1451C65.308 25.9531 66.5133 25.8571 67.836 25.8571C69.756 25.8571 71.3453 26.1238 72.604 26.6571C73.884 27.1904 74.8333 28.0544 75.452 29.2491C76.092 30.4438 76.412 32.0544 76.412 34.0811V41.9851H57.5ZM79.804 41.9851V38.2731C79.9107 38.2731 80.0067 38.3158 80.092 38.4011C80.1773 38.4864 80.2413 38.6144 80.284 38.7851C80.3267 38.9558 80.3587 39.1584 80.38 39.3931C80.4227 39.6064 80.444 39.8518 80.444 40.1291C80.444 40.4064 80.4227 40.6624 80.38 40.8971C80.3587 41.1318 80.3267 41.3344 80.284 41.5051C80.2413 41.6544 80.1773 41.7718 80.092 41.8571C80.0067 41.9424 79.9107 41.9851 79.804 41.9851ZM83.4285 41.9851V19.3611H87.7165V41.9851H83.4285ZM79.8125 41.9851V38.2731H83.4285V41.9851H79.8125ZM79.8125 41.9851C79.6845 41.9851 79.5885 41.9424 79.5245 41.8571C79.4392 41.7718 79.3752 41.6544 79.3325 41.5051C79.2685 41.3344 79.2258 41.1318 79.2045 40.8971C79.1832 40.6624 79.1725 40.4064 79.1725 40.1291C79.1725 39.7451 79.1938 39.4251 79.2365 39.1691C79.2792 38.8918 79.3538 38.6784 79.4605 38.5291C79.5458 38.3584 79.6632 38.2731 79.8125 38.2731V41.9851ZM92.8488 41.9851V19.3611H97.1048V41.9851H92.8488ZM116.185 41.9851C114.371 41.9851 112.878 41.6971 111.705 41.1211C110.531 40.5451 109.657 39.6704 109.081 38.4971C108.526 37.3238 108.249 35.8411 108.249 34.0491C108.249 32.2571 108.526 30.7638 109.081 29.5691C109.657 28.3531 110.531 27.4464 111.705 26.8491C112.878 26.2304 114.371 25.9211 116.185 25.9211H123.417V39.9691H119.129V28.7051L120.185 29.6331H116.185C115.31 29.6331 114.606 29.7398 114.073 29.9531C113.539 30.1451 113.145 30.5611 112.889 31.2011C112.654 31.8198 112.537 32.7691 112.537 34.0491C112.537 35.2651 112.643 36.1824 112.857 36.8011C113.091 37.3984 113.475 37.7931 114.009 37.9851C114.542 38.1771 115.267 38.2731 116.185 38.2731H126.777V41.9851H116.185ZM126.777 41.9851V38.2731C126.905 38.2731 127.001 38.3158 127.065 38.4011C127.15 38.4864 127.214 38.6144 127.257 38.7851C127.321 38.9558 127.363 39.1584 127.385 39.3931C127.406 39.6064 127.417 39.8518 127.417 40.1291C127.417 40.4064 127.406 40.6624 127.385 40.8971C127.363 41.1318 127.321 41.3344 127.257 41.5051C127.214 41.6544 127.15 41.7718 127.065 41.8571C127.001 41.9424 126.905 41.9851 126.777 41.9851ZM111.417 22.9771V19.3291H115.545V22.9771H111.417ZM117.241 22.9771V19.3291H121.369V22.9771H117.241ZM145.597 41.9851C144.723 41.9851 143.848 41.8251 142.973 41.5051C142.12 41.1638 141.331 40.6624 140.605 40.0011L143.229 37.2811C143.656 37.6224 144.051 37.8784 144.413 38.0491C144.797 38.1984 145.192 38.2731 145.597 38.2731H151.581L149.373 40.2891V33.1851C149.373 32.8438 149.331 32.3318 149.245 31.6491C149.181 30.9451 149.075 30.1558 148.925 29.2811C148.797 28.3851 148.637 27.4784 148.445 26.5611L152.669 25.9211C152.819 26.6891 152.957 27.5531 153.085 28.5131C153.235 29.4518 153.363 30.3478 153.469 31.2011C153.576 32.0331 153.629 32.6944 153.629 33.1851V41.9851H145.597ZM126.781 41.9851V38.2731H131.453L130.493 39.2651V29.1851H134.781V41.9851H126.781ZM134.781 41.9851V38.2731H137.373C138.056 38.2731 138.579 38.1771 138.941 37.9851C139.304 37.7718 139.549 37.3558 139.677 36.7371C139.827 36.0971 139.901 35.1478 139.901 33.8891V27.5851H144.189V33.8891C144.189 35.7878 143.944 37.3344 143.453 38.5291C142.984 39.7238 142.248 40.5984 141.245 41.1531C140.243 41.7078 138.952 41.9851 137.373 41.9851H134.781ZM126.781 41.9851C126.653 41.9851 126.557 41.9424 126.493 41.8571C126.408 41.7718 126.344 41.6544 126.301 41.5051C126.237 41.3344 126.195 41.1318 126.173 40.8971C126.152 40.6624 126.141 40.4064 126.141 40.1291C126.141 39.7451 126.163 39.4251 126.205 39.1691C126.248 38.8918 126.323 38.6784 126.429 38.5291C126.515 38.3584 126.632 38.2731 126.781 38.2731V41.9851ZM157.091 49.9211C156.814 49.9211 156.515 49.9104 156.195 49.8891C155.875 49.8678 155.544 49.8358 155.203 49.7931L155.363 46.1451C155.704 46.1664 156.024 46.1878 156.323 46.2091C156.643 46.2304 156.878 46.2411 157.027 46.2411C157.859 46.2411 158.52 45.9104 159.011 45.2491C159.523 44.5878 159.779 43.6598 159.779 42.4651V25.9211H164.067V42.4651C164.067 43.9158 163.768 45.2064 163.171 46.3371C162.595 47.4678 161.784 48.3424 160.739 48.9611C159.694 49.6011 158.478 49.9211 157.091 49.9211ZM180.491 41.9851V38.2731H183.851V41.9851H180.491ZM167.499 41.9851V38.2731H179.115L176.203 40.8011V35.4251C176.203 33.9104 176.043 32.7371 175.723 31.9051C175.424 31.0731 174.912 30.4864 174.187 30.1451C173.483 29.8038 172.512 29.6331 171.275 29.6331H168.683V25.9211H171.275C173.237 25.9211 174.901 26.2411 176.267 26.8811C177.653 27.5211 178.699 28.5451 179.403 29.9531C180.128 31.3398 180.491 33.1638 180.491 35.4251V41.9851H167.499ZM183.851 41.9851V38.2731C183.979 38.2731 184.085 38.3158 184.171 38.4011C184.256 38.4864 184.32 38.6144 184.363 38.7851C184.405 38.9558 184.437 39.1584 184.459 39.3931C184.48 39.6064 184.491 39.8518 184.491 40.1291C184.491 40.4064 184.48 40.6624 184.459 40.8971C184.437 41.1318 184.405 41.3344 184.363 41.5051C184.32 41.6544 184.256 41.7718 184.171 41.8571C184.085 41.9424 183.979 41.9851 183.851 41.9851ZM183.844 41.9851V38.2731H200.452L198.5 39.9371V34.0491C198.5 32.8971 198.372 32.0011 198.116 31.3611C197.86 30.6998 197.412 30.2411 196.772 29.9851C196.153 29.7078 195.289 29.5691 194.18 29.5691C193.305 29.5691 192.441 29.6331 191.588 29.7611C190.756 29.8678 190.105 30.0171 189.636 30.2091L192.292 27.7131C192.164 28.2038 192.036 28.8224 191.908 29.5691C191.801 30.3158 191.705 31.1158 191.62 31.9691C191.534 32.8011 191.492 33.6224 191.492 34.4331C191.492 35.1798 191.524 35.9584 191.588 36.7691C191.673 37.5798 191.758 38.2944 191.844 38.9131C191.95 39.5318 192.036 39.9584 192.1 40.1931L188.036 41.3131C187.95 41.0144 187.844 40.5238 187.716 39.8411C187.588 39.1584 187.47 38.3478 187.364 37.4091C187.278 36.4704 187.236 35.4784 187.236 34.4331C187.236 33.3664 187.289 32.3424 187.396 31.3611C187.502 30.3584 187.62 29.4624 187.748 28.6731C187.897 27.8624 188.036 27.2118 188.164 26.7211C188.676 26.5291 189.476 26.3371 190.564 26.1451C191.652 25.9531 192.857 25.8571 194.18 25.8571C196.1 25.8571 197.689 26.1238 198.948 26.6571C200.228 27.1904 201.177 28.0544 201.796 29.2491C202.436 30.4438 202.756 32.0544 202.756 34.0811V41.9851H183.844ZM183.844 41.9851C183.716 41.9851 183.62 41.9424 183.556 41.8571C183.47 41.7718 183.406 41.6544 183.364 41.5051C183.3 41.3344 183.257 41.1318 183.236 40.8971C183.214 40.6624 183.204 40.4064 183.204 40.1291C183.204 39.7451 183.225 39.4251 183.268 39.1691C183.31 38.8918 183.385 38.6784 183.492 38.5291C183.577 38.3584 183.694 38.2731 183.844 38.2731V41.9851Z" fill="white"/>
<path d="M287.001 17.7326L250.271 0.82562C249.08 0.276882 247.811 0 246.5 0C245.189 0 243.92 0.276882 242.728 0.82562L205.999 17.7326C205.392 18.0132 205 18.6248 205 19.2932C205 19.9616 205.392 20.5732 205.999 20.8538L242.728 37.7608C243.92 38.3095 245.189 38.5877 246.5 38.5877C247.811 38.5877 249.08 38.3095 250.272 37.7608L279.259 24.4183V37.854C278.108 37.9837 277.211 38.9628 277.211 40.1459C277.211 41.1768 277.893 42.0692 278.866 42.3535L276.905 55.2883H285.931L283.971 42.3535C284.943 42.0692 285.625 41.1768 285.625 40.1459C285.625 38.9628 284.728 37.9837 283.578 37.854V22.4297L287.001 20.8538C287.608 20.5732 288 19.9616 288 19.2932C288 18.6248 287.608 18.0132 287.001 17.7326Z" fill="white"/>
<path d="M246.5 44.7096C244.677 44.7096 242.91 44.322 241.25 43.558L223.285 35.2877V51.7641C223.285 55.3814 234.215 59.9702 246.5 59.9702C258.785 59.9702 269.715 55.3812 269.715 51.7641V35.2877L251.749 43.558C250.09 44.322 248.324 44.7096 246.5 44.7096Z" fill="white"/>
</svg>
